# xmcd
#
# Track frame offsets:
#  150
#  13063
#  23685
#  53155
#  65570
#  77684
#  91443
#  106241
#  120775
#  132396
#  138520
#  151489
#
# Disc length: 2175 seconds
#
# Revision: 0
# Processed by: cddbd v1.5.1PL2 Copyright (c) Steve Scherf et al.
# Submitted via: Collectorz.com_Music_Collector 6.9
#
DISCID=95087d0c
DTITLE=Nancy Priddy - You've Come This Way Before
DYEAR=1968
DGENRE=Pop
TTITLE0=You've Come This Way Before
TTITLE1=Ebony Glass
TTITLE2=Mystic Lady
TTITLE3=Christina's World
TTITLE4=We Could Have It All
TTITLE5=My Friend Frank
TTITLE6=O Little Child
TTITLE7=And Who Will You Be Then
TTITLE8=On The Other Side Of The River
TTITLE9=Epitaph
TTITLE10=Take Care Of My Brother
TTITLE11=Feelings
EXTD=
EXTT0=
EXTT1=
EXTT2=
EXTT3=
EXTT4=
EXTT5=
EXTT6=
EXTT7=
EXTT8=
EXTT9=
EXTT10=
EXTT11=
PLAYORDER=
